<svg xmlns="http://www.w3.org/2000/svg" viewBox="0 0 320 180"><defs><style>.cls-1{isolation:isolate;}.cls-2{fill:#f5f5fa;}.cls-3{fill:#d2dcf0;}.cls-4{fill:#fff;}.cls-5{fill:#46567d;}.cls-41,.cls-6{fill:#97a0d1;}.cls-7{fill:#0d0e0e;}.cls-46,.cls-8{fill:#3e51a0;}.cls-16,.cls-18,.cls-19,.cls-21,.cls-29,.cls-30,.cls-32,.cls-34,.cls-38,.cls-41,.cls-52,.cls-53,.cls-54,.cls-55,.cls-60,.cls-8{opacity:0.4;}.cls-12,.cls-16,.cls-18,.cls-19,.cls-21,.cls-29,.cls-30,.cls-32,.cls-34,.cls-38,.cls-41,.cls-52,.cls-53,.cls-54,.cls-55,.cls-60,.cls-61,.cls-8{mix-blend-mode:multiply;}.cls-9{fill:#f1f0f8;}.cls-10{fill:#eaf0f9;}.cls-11,.cls-12{fill:#eaeaf5;}.cls-13,.cls-54{fill:#121e44;}.cls-14,.cls-21{fill:#1e2e56;}.cls-15,.cls-19{fill:#f9b39d;}.cls-17,.cls-18{fill:#57688d;}.cls-20{fill:#010101;}.cls-22,.cls-32{fill:#61453e;}.cls-23{fill:#e4ebf7;}.cls-24,.cls-29{fill:#5a291c;}.cls-25{fill:#8f382e;}.cls-26,.cls-30{fill:#7f87c2;}.cls-27{fill:#f6927e;}.cls-28{fill:#471f16;}.cls-31{fill:#d6dbef;}.cls-33,.cls-34{fill:#f27860;}.cls-35{fill:#f69181;}.cls-36{fill:#997874;}.cls-37,.cls-38{fill:#af908c;}.cls-39{fill:#142344;}.cls-40{fill:#4c70b0;}.cls-42{fill:#ad827b;}.cls-43{fill:#9c4b3b;}.cls-44{fill:#a43223;}.cls-45{fill:#4d7abd;}.cls-47,.cls-53{fill:#e1634d;}.cls-48{fill:#f8a38c;}.cls-49{fill:#503732;}.cls-50{fill:#5a6db3;}.cls-51,.cls-52{fill:#6b77b9;}.cls-55,.cls-61{fill:#243065;}.cls-56{fill:#3a4867;}.cls-57{fill:#243d71;}.cls-58{fill:#4f638f;}.cls-59{fill:#0b0707;}.cls-60{fill:#0b1738;}.cls-61{opacity:0.2;}.cls-62{fill:#d1d3d4;}.cls-63{fill:#414042;}.cls-64{fill:#bcbec0;}</style></defs><g class="cls-1"><g id="Layer_1" data-name="Layer 1"><path class="cls-2" d="M320,135.5s-5.5-34-30.9-39.7c-41.9-9.3-46.2,14.3-54.9,11.4s-27-36.4-78.6-36.7-58.3,52.6-100,38.3C26.2,98.8,0,135.5,0,135.5Z"/><rect class="cls-3" x="51.2" y="55.1" width="88.3" height="55.01"/><rect class="cls-4" x="117.5" y="90.6" width="21.9" height="0.47" transform="translate(35.8 217.9) rotate(-89.2)"/><rect class="cls-5" x="49.3" y="54.9" width="91.6" height="2.2"/><rect class="cls-5" x="49.3" y="109.1" width="91.6" height="2.2"/><rect class="cls-4" x="122.2" y="75.5" width="11.6" height="4.71" rx="1.5"/><path class="cls-4" d="M121.6,87.8a1.3,1.3,0,0,0,1.3,1.2h8.5a1.3,1.3,0,0,0,1.3-1.2V86.4a1.3,1.3,0,0,0-1.3-1.2h-8.5a1.3,1.3,0,0,0-1.3,1.2Z"/><path class="cls-4" d="M123.9,95.7c0,.9.4,1.5,1,1.5h6.7c.7,0,1.1-.6,1.1-1.5V93.9c0-.8-.4-1.4-1.1-1.4h-6.7c-.6,0-1,.6-1,1.4Z"/><rect class="cls-4" x="123.8" y="99.8" width="9" height="3.77" rx="1.1"/><rect class="cls-5" x="53.2" y="63.5" width="9" height="0.79"/><rect class="cls-5" x="53.2" y="71.9" width="9" height="0.79"/><rect class="cls-5" x="53.2" y="81.1" width="9" height="0.79"/><rect class="cls-5" x="53.2" y="90.4" width="9" height="0.79"/><rect class="cls-5" x="53.2" y="96.9" width="9" height="0.79"/><rect class="cls-6" x="123.8" y="76.7" width="7.9" height="0.79"/><rect class="cls-6" x="123.8" y="78.3" width="7.9" height="0.79"/><rect class="cls-6" x="123.3" y="86.8" width="8" height="0.79"/><rect class="cls-6" x="125.6" y="93.9" width="6" height="0.79"/><rect class="cls-6" x="125.5" y="101.4" width="6" height="0.79"/><polygon class="cls-7" points="104.3 102 104.3 101.8 64.5 101.5 64.5 62.9 64.3 62.9 64.3 101.7 64.4 101.7 104.3 102"/><path class="cls-4" d="M101.1,99.2l.4-.3A33,33,0,0,0,84,88.5c-3.8-.7-6.5-7.8-9-14S70.9,64,68.4,63.3l-.2.5c2.3.6,4.3,5.6,6.4,10.9S79.9,88.2,83.9,89A32.2,32.2,0,0,1,101.1,99.2Z"/><rect class="cls-4" x="97.2" y="69.5" width="11.6" height="4.71" rx="1.5"/><path class="cls-4" d="M108.7,84.1a1.3,1.3,0,0,0,1.1,1.4h7.1a1.3,1.3,0,0,0,1.2-1.4V82.3a1.4,1.4,0,0,0-1.2-1.5h-7.1c-.6,0-1.1.7-1.1,1.5Z"/><path class="cls-4" d="M107.7,92.6c0,.4.5.8,1.2.8h6.7c.6,0,1.1-.4,1.1-.8v-1c0-.4-.5-.7-1.1-.7h-6.7c-.7,0-1.2.3-1.2.7Z"/><path class="cls-4" d="M107.7,100.1a1.2,1.2,0,0,0,1.2,1.2h6.7a1.2,1.2,0,0,0,1.1-1.2V98.6a1,1,0,0,0-1.1-1.1h-6.7a1.1,1.1,0,0,0-1.2,1.1Z"/><rect class="cls-4" x="115.6" y="60.9" width="14.5" height="5.81" rx="1.8"/><rect class="cls-4" x="124.8" y="66.4" width="0.5" height="9.43" transform="translate(-17.8 53.8) rotate(-22.7)"/><rect class="cls-4" x="108.1" y="73.9" width="16.2" height="0.47" transform="translate(-0.4 147.7) rotate(-64.8)"/><rect class="cls-6" x="118.7" y="62.6" width="9" height="0.79"/><rect class="cls-6" x="98.4" y="71.2" width="9" height="0.79"/><rect class="cls-6" x="121.4" y="64.3" width="6.1" height="0.79"/><rect class="cls-6" x="109.1" y="91.7" width="6.1" height="0.79"/><rect class="cls-6" x="109.1" y="98.9" width="6.1" height="0.79"/><rect class="cls-6" x="110.7" y="82.1" width="6" height="0.79"/><rect class="cls-6" x="110.7" y="83.5" width="6" height="0.79"/><ellipse class="cls-4" cx="64.4" cy="72.1" rx="1" ry="1"/><path class="cls-4" d="M63.5,81.8a1.1,1.1,0,0,0,1,1,1,1,0,1,0,0-2A1.1,1.1,0,0,0,63.5,81.8Z"/><path class="cls-4" d="M63.5,90.9a1.1,1.1,0,0,0,1,1,1,1,0,1,0,0-2A1.1,1.1,0,0,0,63.5,90.9Z"/><path class="cls-4" d="M63.3,97.4a1,1,0,0,0,1.1.9,1,1,0,0,0,1-.9,1,1,0,0,0-1-1A1,1,0,0,0,63.3,97.4Z"/><path class="cls-4" d="M63.5,63.3a1,1,0,0,0,1,1,1,1,0,1,0,0-1.9A1,1,0,0,0,63.5,63.3Z"/><rect class="cls-4" x="109.2" y="87.9" width="6.1" height="0.47" transform="matrix(0.35, -0.94, 0.94, 0.35, -9.86, 161.95)"/><rect class="cls-4" x="103.8" y="67.4" width="12.4" height="0.47" transform="translate(-18.4 53.8) rotate(-25.4)"/><rect class="cls-4" x="112.3" y="93.2" width="0.5" height="4.65" transform="translate(-30.8 60.4) rotate(-26.6)"/><polygon class="cls-8" points="98.8 81.1 97.5 80.6 98.1 83.9 98.8 81.1"/><polygon class="cls-8" points="87.1 81.5 87.7 81.3 86.5 84.6 87.1 81.5"/><rect class="cls-9" y="156.7" width="320" height="23.78"/><rect class="cls-3" y="140.2" width="320" height="16.5"/><rect class="cls-10" y="135.1" width="320" height="5.09"/><rect class="cls-11" x="80.7" y="153.5" width="31.9" height="4.54"/><rect class="cls-11" x="78.4" y="149.3" width="31.9" height="4.4"/><rect class="cls-11" x="75.7" y="144.6" width="31.9" height="4.67"/><rect class="cls-11" x="73.2" y="140.2" width="31.9" height="4.67"/><ellipse class="cls-12" cx="104.6" cy="161.6" rx="15.5" ry="1.3"/><path class="cls-13" d="M109.2,145.4H95.4s.7-3.4,6.9-3.4S109.2,145.4,109.2,145.4Z"/><path class="cls-13" d="M99.9,136.5s0,5.6,3.5,5.9,15.4-.8,15.4-.8L115.9,159l3.9.6s4.9-20.3,4.1-22.3-13.5-1-13.5-1S101.8,139.5,99.9,136.5Z"/><path class="cls-14" d="M99.7,136.2s.1,7.3,4.7,7.6,15.8-1,15.8-1l1.9,17.2h4.2l-2.1-21.4-13.8-2.4S101.7,139.3,99.7,136.2Z"/><path class="cls-15" d="M113.8,105.7c.6,2.3,1.4,3,2.7,3.2s-1.3.8-1.3.8-.3,3.4-2.3,3.4l-1.1,3.2h-3.6l2.5-6.4s-1.7-.9-1.3-2.1S113.2,103.2,113.8,105.7Z"/><path class="cls-13" d="M115.2,103a5.3,5.3,0,0,1,0,3c-.5,1.4-1.9,2.7-2.6,2.2s-2.5.1-1.3,1.4-.4,3.1-.4,3.1h-1.6s-2.3-3.6-2.3-5.9C107,102.3,110.7,102.8,115.2,103Z"/><g class="cls-16"><path class="cls-13" d="M110.7,108.3c-.5-1.1.2-2,1.8-.7s2.1-.8,2.6-2.2a5,5,0,0,0,.1-2.4h0a5.3,5.3,0,0,1,0,3c-.5,1.4-1.9,2.7-2.6,2.2S110.6,107.5,110.7,108.3Z"/><path class="cls-13" d="M109.2,112.2h1.6a3.6,3.6,0,0,0,.8-2.2c.5,1.2-.7,2.7-.7,2.7h-1.6a19.7,19.7,0,0,1-2.2-4.9A19.5,19.5,0,0,0,109.2,112.2Z"/></g><path class="cls-17" d="M125.7,123.2l-2.1-2.5s-6.5,6.8-6.8,6.2c-1.4-2.6-.5-10.1-2.8-11.1s-6.5-1.4-8.5.6-8.3,10.5-7,13.2c.4.7,2.1,0,2.1,0s-1.7,8.3-.4,8.8c6.8,2.4,10.7-1.7,10.7-1.7l1.6-9.4s1.4,5.9,3.6,5.7S125.7,123.2,125.7,123.2Z"/><path class="cls-15" d="M123.6,120.7s2.1-2.9,3.7-2.9-2.2,1.7-1.5,2.1,4.2-1.8,4.4-.7-4.5,4-4.5,4Z"/><path class="cls-13" d="M112.1,161.7h.4L108.7,145c.5-1.3,3.8-11.4,1.4-15a2.7,2.7,0,0,0-2.5-1.3h0c-2.9,0-5.4,2.7-7.3,7.9a42.6,42.6,0,0,0-2.1,7.9h.4c0-.2,2.5-15.5,9-15.5h0a2.4,2.4,0,0,1,2.2,1.2c2.3,3.5-1.1,13.6-1.5,14.6h0Z"/><path class="cls-13" d="M107.4,138.2c1.9,0,2.9-.4,2.9-.5v-.3a10.7,10.7,0,0,1-5,.2c-3.6-.5-4.6-1.1-4.6-1.1l-.2.3c0,.1,1,.7,4.8,1.2Z"/><path class="cls-13" d="M108.6,135.7h2.1v-.4h-.3c-4.1.1-7.1-.2-8.8-1.1l-.2.4A18,18,0,0,0,108.6,135.7Z"/><polygon class="cls-13" points="101.1 161.7 101.5 161.7 98.6 145.1 98.1 145.2 101.1 161.7"/><polygon class="cls-13" points="105.3 161.7 107.3 145.4 106.8 145.4 104.9 161.7 105.3 161.7"/><polygon class="cls-13" points="95.3 161.7 97.3 145.4 96.9 145.4 94.9 161.7 95.3 161.7"/><path class="cls-18" d="M100.6,129.6c.8-2.3,3-9.1,2.7-8.3-2.8,7-4.2,8.6-4.2,8.6Z"/><polygon class="cls-18" points="112.4 127.3 111.4 124.7 111.7 131.1 112.4 127.3"/><polygon class="cls-19" points="112.9 113.1 112.3 113 112.4 114.5 112.9 113.1"/><path class="cls-19" d="M111.5,108.6c-.1,0,0,.2.1.3h.3c.1-.1,0-.2-.1-.3Z"/><path class="cls-20" d="M114.4,108.4c0,.2,0,.3-.1.3s-.1-.1-.1-.3,0-.3.1-.3S114.4,108.3,114.4,108.4Z"/><path class="cls-20" d="M114.5,111.3c.2,0,.3-.1.5-.4h-.1c-.2.2-.3.3-.4.2a.4.4,0,0,1-.3-.2h-.1a.8.8,0,0,0,.3.4Z"/><path class="cls-21" d="M108.7,138.2a11.2,11.2,0,0,1-8.2.3c-.3-.1.6,1.6,4.1,1.6A8.4,8.4,0,0,0,108.7,138.2Z"/><polygon class="cls-22" points="122.1 161.6 119.8 159.6 115.9 159.3 115.4 161.3 122.1 161.6"/><polygon class="cls-22" points="128.9 161.9 126.5 159.9 122.7 159.6 122.1 161.6 128.9 161.9"/><polygon class="cls-23" points="301.2 134.7 303.8 120.9 291.8 121 293.8 134.9 301.2 134.7"/><path class="cls-3" d="M300.7,105.2s7.4-29.1,2.6-43.4c-1-2.8-7.5,37.4-3.3,43.6l-.8,15.5h.8Z"/><path class="cls-3" d="M298.6,120.9V107.8s-2.5-30.8-3.3-28c-3.8,12.8,2.3,28,2.5,28s.3,13.1.3,13.1Z"/><path class="cls-3" d="M296.4,120.9l-1.1-10.1s-3.6-24.3-9.3-26.6c0,0,3.6,25.5,8.7,27.1l.8,9.7Z"/><path class="cls-13" d="M42.3,146.3H56.1s-.8-3.5-6.9-3.5S42.3,146.3,42.3,146.3Z"/><g class="cls-16"><path class="cls-24" d="M164.1,107.6c.4-.1.9-1.2,1.5-.7s.2,1.3-.3,1.7.5-.9,0-1.3-1,.3-1.3.5Z"/><path class="cls-24" d="M163.4,102.4c-1.5,3-.5,3.7,0,4.5s-1.4,1.9-1.8,2.2a8.6,8.6,0,0,0,1.3-1.6c-1-.5-1.3-1.9.2-4.8l.5-.6C163.5,102.2,163.4,102.3,163.4,102.4Z"/><path class="cls-24" d="M164.7,111l1.6.9a6.7,6.7,0,0,0,1.8-1.3,10.4,10.4,0,0,1-2.1,1.6l-1.6-1v-1.9h.2Z"/><path class="cls-24" d="M160.4,110h.1a1.5,1.5,0,0,0,0,1.7c.5.8,1.6.5,2.2.4h.1s-1.9.8-2.6-.2A1.7,1.7,0,0,1,160.4,110Z"/></g><ellipse class="cls-12" cx="56.1" cy="161.8" rx="19.6" ry="1.3"/><path class="cls-13" d="M221.4,145.4H207.6s.7-3.4,6.9-3.4S221.4,145.4,221.4,145.4Z"/><ellipse class="cls-12" cx="76.4" cy="175.1" rx="12" ry="0.6"/><polygon class="cls-25" points="60.8 160.3 60.8 162.9 71.3 162.9 65.7 160.4 60.8 160.3"/><polygon class="cls-19" points="218.2 114.3 218.5 113.5 217.4 115.2 218.2 114.3"/><path class="cls-26" d="M220.6,137.3s-1.1,5.2-5.4,6.1c-2.7.6-11.5-1.8-11.5-1.8v-7.7l7.8,1.9S217.6,138.2,220.6,137.3Z"/><path class="cls-27" d="M203.6,133.9s-5.5-2.3-6.9-1.1,9,23.5,9,23.5l3.6-.4-7.9-14.3h2.3Z"/><ellipse class="cls-12" cx="212.2" cy="161.8" rx="15.5" ry="1.3"/><path class="cls-28" d="M210.1,157l.5-.6s-2.3-4.9-4-5.1c0,0-3.4,1.4-2.9,2.1,4.4,6.2,2.4,9.3,4.5,8.6s2.1-2.8.9-6C208.8,155.2,210.1,157,210.1,157Z"/><polygon class="cls-29" points="209.6 158.6 207.8 154.4 209.1 156 209.6 158.6"/><path class="cls-15" d="M203.6,135.5s-5.6-1.9-7-.6,6.7,21.6,6.7,21.6h3.1L202,141.5h1.7Z"/><path class="cls-30" d="M219.4,140.2a1.7,1.7,0,0,1-1.9.8c-1.1-.4-4.2-3.4-4.2-3.4S217.5,140.9,219.4,140.2Z"/><polygon class="cls-31" points="212.9 122.2 209 116 204.8 118.7 208.3 124.7 212.9 122.2"/><path class="cls-22" d="M218,105.7s2-3.9-.8-4-1.6,3.7-1.6,3.7Z"/><path class="cls-32" d="M217.2,101.8h.1c-2.8.1-1.3,3.6-1.3,3.6h-.4S214,101.7,217.2,101.8Z"/><path class="cls-15" d="M223.2,114.6s-6-8.1-8.3-7.4a3.5,3.5,0,0,0-2.7,2.2,20.3,20.3,0,0,1,1.8,3.4l.3,1.9.7-.7,1.4,1.5a1.6,1.6,0,0,0,1.8-1.2l.3-.8.8,1A26,26,0,0,1,223.2,114.6Z"/><path class="cls-22" d="M220.6,108.7s1.5,3.4,0,3.3a9.7,9.7,0,0,1-3-.8s-.4-2-1.4-1.8-.6,1.6-.6,1.6-2.6,0-3.3-1.4,1.4-4.5,4-4.4S219.7,106.5,220.6,108.7Z"/><g class="cls-16"><path class="cls-22" d="M216.6,109.1c.9-.2,1.2,1.1,1.5,1.5s1.4,1,2.9,1.1h.2a.6.6,0,0,1-.6.3,9.7,9.7,0,0,1-3-.8s-.4-2-1.4-1.8h0Z"/><path class="cls-22" d="M214.4,105.7c-1.4,1-2.2,2.7-1.8,3.7s2.2,1.2,3,1.3v.3s-2.6,0-3.3-1.4S212.8,106.6,214.4,105.7Z"/></g><path class="cls-33" d="M226.1,126.9l-2.4-.2s-2.5,9-3.7,12.5-6.7-1.3-8.6-3.4l1.1-3.4c0-.6-.8-4.9-1.3-7.1,0,0,.5-8,5.6-9.9s7.5-1.8,9,1.9S226.1,126.9,226.1,126.9Z"/><path class="cls-15" d="M226.1,126.9s-2.2,7.9-3,8a1.8,1.8,0,0,1-1.6-.6l2.2-7.6Z"/><path class="cls-13" d="M210.7,144.6a71.7,71.7,0,0,1,2.1-7.7,22,22,0,0,0,5,1l3.1.2,1.9-.2a44.7,44.7,0,0,1-2.4,7h0l3.9,17.2h.5l-4-17.2c.5-1,5-11.5,2.4-15.5a3.7,3.7,0,0,0-3.3-1.5c-2.9.1-5.3,2.9-7.4,8.4a50.4,50.4,0,0,0-2.2,8.1Zm12.7-9.4H219c-3.9-.2-4.9-.8-5.1-.9,1.5-3.1,3.4-5.7,6-5.7a3.1,3.1,0,0,1,2.9,1.2C223.7,131,223.7,133,223.4,135.2Zm-10.5,1.3c.3-.6.5-1.3.8-2l.2.2c2,1,8,.9,9.4.9a12.9,12.9,0,0,1-.4,1.9,17.8,17.8,0,0,1-5,0A22,22,0,0,1,212.9,136.5Z"/><polygon class="cls-13" points="213.3 162.2 213.8 162.2 210.6 144.9 210.2 145 213.3 162.2"/><polygon class="cls-13" points="217.3 162.2 219.4 145.4 219 145.4 217 162.2 217.3 162.2"/><polygon class="cls-13" points="207.5 162.2 209.5 145.5 209.1 145.4 207 162.2 207.5 162.2"/><path class="cls-19" d="M216.4,110.7l.3.2s.1-.2,0-.3-.1-.3-.2-.3S216.4,110.5,216.4,110.7Z"/><path class="cls-7" d="M214.5,111.8a.5.5,0,0,1,.1.3c-.1,0-.2,0-.3-.2v-.3Z"/><path class="cls-7" d="M215.8,114.1h.1a.6.6,0,0,0,.1-.4h-.1v.2h0Z"/><polygon class="cls-34" points="216.9 122.4 213.3 131.2 217.7 123.2 216.9 122.4"/><path class="cls-15" d="M215.3,126.3s-3,7.1-4.2,7.7c-4.3,2.4-3.4-12.5-3.4-12.5s-.8-4.3,2.4-4.3c1.1,0-.2,4.3-.2,4.3l.5,6.3.8-2.5A5.3,5.3,0,0,0,215.3,126.3Z"/><path class="cls-35" d="M222.5,113l2.2,2.2a2.1,2.1,0,0,1-3.1-.5s-1.4,1.5-2.3,1.2a2.6,2.6,0,0,1-1.4-.9S220.7,112.5,222.5,113Z"/><polygon class="cls-34" points="223.7 126.7 224.9 122.4 224.5 126.8 223.7 126.7"/><path class="cls-7" d="M210.6,134.4h.1c1.8-.6,6.1-11.5,6.3-11.9h-.2c0,.1-4.4,11.3-6.1,11.8a.2.2,0,0,1-.3,0v.2Z"/><ellipse class="cls-12" cx="151.6" cy="161.8" rx="15.5" ry="1.3"/><path class="cls-13" d="M160.8,145.4H147s.7-3.4,6.9-3.4S160.8,145.4,160.8,145.4Z"/><path class="cls-36" d="M162.8,136.7l-11.9-.9L138.5,134l-9.2,26.6h4.1l10.4-18.5s11.1,2.3,14.4.8C159.9,142.1,162.8,136.7,162.8,136.7Z"/><path class="cls-37" d="M162,140.1s-6.6.8-10.5-4.2l-13.7.8-5.5,23.9,3.9-.2,7.1-17s12,1.2,15.3-.4A12.3,12.3,0,0,0,162,140.1Z"/><path class="cls-6" d="M162,140.1s-6.6.8-10.5-4.2l2.9-6.8s-4.9,3.8-4.3-.9,6.5-11.3,8.4-12.2,6.3-1.5,6.3-1.5,1.8-18.7,0-23.9c-.2-.6,3.7-.1,3.7-.1s4.8,18.1,0,31.5S162,140.1,162,140.1Z"/><path class="cls-13" d="M163.8,162.3h.4l-4-17.2c.5-1,5-11.5,2.4-15.5a3.7,3.7,0,0,0-3.3-1.5c-2.8.1-5.3,2.9-7.4,8.4a66.6,66.6,0,0,0-2.2,8.1h.5c0-.2,2.7-16,9.2-16.1a2.9,2.9,0,0,1,2.8,1.2c2.6,3.9-2.3,15.1-2.4,15.2h0Z"/><path class="cls-13" d="M160.3,138.1a11.7,11.7,0,0,0,2.3-.2v-.4a16.6,16.6,0,0,1-5.2,0c-4.1-.5-5.1-1-5.1-1l-.2.3c0,.1,1.1.6,5.2,1.1Z"/><polygon class="cls-13" points="152.7 161.8 153.1 161.8 150.2 145.2 149.8 145.3 152.7 161.8"/><rect class="cls-13" x="149.4" y="153.3" width="16.4" height="0.41" transform="translate(-13.8 291.5) rotate(-83.1)"/><polygon class="cls-30" points="154.4 129.1 159.9 121.3 152.9 132.6 154.4 129.1"/><path class="cls-15" d="M165.3,115.1s2.5-9.7.4-12.1-2.4,3.2-3.7,3.8a5.9,5.9,0,0,1-2.1.8l1.1.7s-1.3,3-.5,3.6,2.3.2,2.3.2l-.8,3Z"/><polygon class="cls-30" points="165.1 115.1 167 115.3 165.9 112.2 165.1 115.1"/><path class="cls-24" d="M160.4,110s.7,0,2.5-2.5c-1-.5-1.3-1.9.2-4.8s5.1-2.4,6.5,3.3c.9,3.8-3.6,6.2-3.6,6.2l-1.6-1v-1.9s2-1.1.9-2-1,.4-1.4.5-1.8,2.6-1.5,3.5a4.1,4.1,0,0,0,.4.9s-1.9.8-2.6-.2A1.7,1.7,0,0,1,160.4,110Z"/><path class="cls-15" d="M168.5,90.6s-1.5-5.2-4.9-7.6c-.9-.6,1.3,5.5,1.3,5.5s-1.5-2.2-1.7-1.3l1.6,3.4Z"/><polygon class="cls-11" points="166 115.2 165.5 114 162.2 114 160.9 115.2 166 115.2"/><polygon class="cls-11" points="168.5 90.1 168.8 91.6 165.2 92.2 164.8 90.6 168.5 90.1"/><path class="cls-38" d="M161.5,140.1a12.2,12.2,0,0,1-8.7-2.8s1,3.4,6.2,3.5A3.9,3.9,0,0,0,161.5,140.1Z"/><polygon class="cls-39" points="133.2 159.5 132.8 162.2 123.7 162.2 129.8 159.3 133.2 159.5"/><polygon class="cls-14" points="136.5 159.3 136.1 162.2 126.8 162.2 132.7 159.2 136.5 159.3"/><path class="cls-13" d="M161.5,135.7H163v-.4c-.1,0-5.7.4-9.8-1.3l-.2.4A23.8,23.8,0,0,0,161.5,135.7Z"/><polygon class="cls-38" points="143.2 143.5 142.2 143.2 142.4 145.6 143.2 143.5"/><path class="cls-24" d="M206.3,158.1l.6-.3s-.4-5.4-1.9-6.1c0,0-3.7.1-3.5.9,2.1,7.4-.9,9.6,1.3,9.6s2.9-1.9,2.9-5.3C205.7,156.1,206.3,158.1,206.3,158.1Z"/><polygon class="cls-29" points="205.3 159.5 205 155 205.7 156.9 205.3 159.5"/><polygon class="cls-4" points="48.8 135 51.2 125.6 43 125.7 39.9 125.7 41.8 135.1 48.8 135"/><polygon class="cls-23" points="27.4 135.2 30.3 124.2 17.1 124.2 19.3 135.1 27.4 135.2"/><path class="cls-10" d="M21,82.1c11.9,11.7,4.1,32.4,4.1,32.4h0v10.1h-1V114C20,110.4,18.5,79.6,21,82.1Z"/><path class="cls-10" d="M31.6,88.4c8.3,13.4-3.1,24.5-3.1,24.5l-2,1.9-.7,10.7h-.9l.8-10.8C25.5,105.6,29.8,85.4,31.6,88.4Z"/><path class="cls-10" d="M21,116.2l1.1,8.4h-.8l-1.7-8.4s-11.9-6.1-3.9-20.4C15.7,95.8,19.8,110.2,21,116.2Z"/><path class="cls-40" d="M45.1,141.3a10,10,0,0,0,8.7-3.9l-2.7-6.2s4.5,3.5,4-.7-6-10.3-7.7-11.1a31.9,31.9,0,0,0-5.9-1.4s-3.6-.1-2.2,7.4C41.7,138.2,45.1,141.3,45.1,141.3Z"/><path class="cls-15" d="M40.6,118.3s-3.5-8.8-1.5-11,3.8,3.2,5,3.8a6,6,0,0,0,1.9.7l-1,.7s1.2,2.6.5,3.2-2.3,0-2.3,0l1,2.8Z"/><polygon class="cls-41" points="51.1 131.2 48.2 128.3 52.7 134.7 51.1 131.2"/><path class="cls-42" d="M45.1,141.3s4.7.8,8.5-4.1c0,0,9.2.3,11.2,2.2s.9,21,.9,21H60.8l1.4-17.1s-10.6,3.3-13.8,1.7S45.1,141.3,45.1,141.3Z"/><path class="cls-37" d="M45.1,141.3s4.7.8,8.5-4.1c0,0,11.5-2.6,13.5-.7s5.4,23.9,5.4,23.9H67.7l-3.9-18.5s-11,4.3-14.4,3.5A5.6,5.6,0,0,1,45.1,141.3Z"/><path class="cls-38" d="M45.1,141.3a9.7,9.7,0,0,0,8.5-4.1s-.3,4.2-5.4,4.7A6.8,6.8,0,0,1,45.1,141.3Z"/><polygon class="cls-43" points="67.7 160.4 67.9 162.9 78.4 162.9 72.2 160.3 67.7 160.4"/><path class="cls-44" d="M43.4,107.5a2.5,2.5,0,0,1-1.1,2.4c-.7,0,0,2.5,0,2.5l-.3.3s-1.1-1.9-1.4-.9,1,2.8,1,2.8l-2,.9a24.3,24.3,0,0,1-2.8-4.4C35.8,107.8,41.2,103.9,43.4,107.5Z"/><path class="cls-13" d="M44.5,139l2.2-.2c3.8-.5,4.8-1.1,4.8-1.1l-.2-.4s-1,.6-4.7,1.1a9.9,9.9,0,0,1-4.9-.2v.3C41.6,138.6,42.6,139,44.5,139Z"/><path class="cls-13" d="M43.2,136.5a18.6,18.6,0,0,0,7.3-1.1l-.2-.4c-1.7.9-4.7,1.2-8.8,1.1h-.4v.4h2.1Z"/><polygon class="cls-13" points="50.8 162.5 53.7 146 53.3 145.9 50.4 162.5 50.8 162.5"/><polygon class="cls-13" points="46.6 162.4 47 162.4 45 146.2 44.6 146.2 46.6 162.4"/><polygon class="cls-13" points="56.5 162.5 57 162.5 55 146.2 54.6 146.3 56.5 162.5"/><path class="cls-13" d="M40.4,162.4l3.2-16.6h0c-.4-.9-3.8-11.1-1.5-14.6a2.4,2.4,0,0,1,2.2-1.2h0c6.5,0,9,15.3,9,15.5h.4a40.6,40.6,0,0,0-2.1-7.8c-1.9-5.3-4.4-8-7.3-8h0a2.9,2.9,0,0,0-2.5,1.3c-2.4,3.7.9,13.7,1.4,15L40,162.4Z"/><path class="cls-13" d="M69.3,157H85s-.8-3.9-7.8-3.9S69.3,157,69.3,157Z"/><polygon class="cls-13" points="78.8 175.3 82.2 156.5 81.8 156.4 78.4 175.3 78.8 175.3"/><polygon class="cls-13" points="66.9 175.3 70.4 156.5 70 156.4 66.5 175.3 66.9 175.3"/><polygon class="cls-13" points="74.2 175.3 74.6 175.3 72.4 156.2 72 156.3 74.2 175.3"/><polygon class="cls-13" points="86.3 175.2 86.7 175.2 84.4 156 84 156 86.3 175.2"/><path class="cls-13" d="M70,148.8a16.2,16.2,0,0,0,2.9-.2c3.9-.6,4.9-1.2,4.9-1.2V147a19.8,19.8,0,0,1-4.9,1.2,14.2,14.2,0,0,1-4.8,0v.4A8.5,8.5,0,0,0,70,148.8Z"/><path class="cls-13" d="M70.1,146.2a12.2,12.2,0,0,0,6.6-1.6v-.4c-3.2,2.2-9,1.4-9.1,1.4v.4A19.6,19.6,0,0,0,70.1,146.2Z"/><path class="cls-13" d="M68.2,139.2c-2.3,4.2,1.6,15.8,2.2,17.4H70c-.8-2.2-4.4-13.3-2.1-17.6a2.9,2.9,0,0,1,3-1.7q4,.1,6.9,9.6a77.5,77.5,0,0,1,2.1,9.4h-.4c0-.2-2.5-18.5-8.6-18.7A2.7,2.7,0,0,0,68.2,139.2Z"/><path class="cls-15" d="M53.6,125.6s-2.1-.3-2.2,0,1.9.6,1.9.6-1.4.7-1.3,1.6a1.7,1.7,0,0,0,3,.9A1.9,1.9,0,0,0,53.6,125.6Z"/><path class="cls-20" d="M44.8,113.7a1,1,0,0,0,.6-.3h-.1s-.3.3-.5.3l-.3-.3h-.1c.1.2.2.3.4.3Z"/><polygon class="cls-19" points="43.2 115.7 42.4 115.5 43.8 117.2 43.2 115.7"/><path class="cls-20" d="M43.1,111.2c0,.2.2.3.2.2s.1-.2,0-.3-.2-.3-.3-.3S43,111,43.1,111.2Z"/><path class="cls-45" d="M46,118.9l-2.2-1.5H40.2l-.3,1.5Z"/><path class="cls-15" d="M87.2,81.3V79.2A2,2,0,0,0,88.9,78c.8-1.7.1-5.6.1-5.6s-3.9-1.1-4.4.2.1,5,.1,5V81Z"/><path class="cls-14" d="M89.2,76.3V75.1s.6-2.9-.7-1.8a2,2,0,0,1-2.8-.1c-.4-.5-.8,1.4-.8,2.4s-.3.6-.3.6-1.9-3.2-.9-4.7S91.5,66.8,89.2,76.3Z"/><path class="cls-26" d="M76.8,133.6c0-2.1,2.3-33,2.3-33l10.2.7a270.3,270.3,0,0,0,2.6,32.8H88.1c-.7-3-2.3-17.6-4.1-26.9-2.2,9.2-2.8,23.6-3.6,26.5Z"/><path class="cls-14" d="M80.4,136.1H72.7c-.3-1.3,4.1-2.5,4.1-2.5l3.6.2Z"/><path class="cls-14" d="M88,136.1h7.3c.3-1.3-3.4-1.9-3.4-1.9H88Z"/><path class="cls-15" d="M77.4,104.5s.7,2.7.2,2.3-.5,1-.5,1-.8,2-1.8.2a22.6,22.6,0,0,1-.4-3.3Z"/><path class="cls-20" d="M88.4,75.2v.3c.1,0,.1-.2.1-.3s0-.3-.1-.3Z"/><path class="cls-20" d="M85.9,75.3a.4.4,0,0,0,.1.3c.1,0,.1-.1.1-.3s0-.3-.1-.3A.4.4,0,0,0,85.9,75.3Z"/><path class="cls-20" d="M85,75h.1c-.1-.2-.7-1.2-1.1-1.2l-.2.2h.3C84.3,73.8,84.7,74.5,85,75Z"/><path class="cls-46" d="M102.6,80.2l-2.4-1.5a50.8,50.8,0,0,1-3.4,4.8c-.7.5-4.5-1.6-9-2.6a11.7,11.7,0,0,0-7.9,1.3c-2.5,1.8-4,8.9-4.4,11.6-.8,6.2-.9,11.2-.9,11.2l2.9-.5c0-1.7,1-10.5,1-10.5S81,86.6,81,86.8c-.7,7.2-2.7,16.7-2.7,16.7l5.1.3.7-2.7.3,2.8,5.9.3c-.4-4.5.8-17.8.8-17.8s4.5,1.2,6,1.1S102.6,80.2,102.6,80.2Z"/><polygon class="cls-4" points="87.8 80.9 87.4 80 85.9 80.3 84.5 79.6 83.7 81 84.6 91.8 87.8 80.9"/><polygon class="cls-47" points="85.9 87.2 85.9 82.1 86.4 81.2 85.9 80.3 85.2 81.1 85.4 81.9 84.1 86.8 84.6 92.1 85.9 87.2"/><ellipse class="cls-3" cx="84.3" cy="94.4" rx="0.3" ry="0.4"/><path class="cls-19" d="M87.1,79.2a3,3,0,0,1-1.4-.7c-.4-.3.2,1.2,1.4,1.2Z"/><path class="cls-20" d="M87.3,78.2h0c.2,0,.3-.3.4-.3h-.2l-.2.2-.4-.3h-.1C87,78.1,87.1,78.2,87.3,78.2Z"/><polyline class="cls-20" points="87.4 76.8 86.9 76.8 86.9 76.9 87.5 77 87.4 75.8 87.2 75.8"/><path class="cls-15" d="M84.4,75.3c-.1-.1-.6-.3-.6.1s.7,1,.7,1A2.3,2.3,0,0,0,84.4,75.3Z"/><path class="cls-15" d="M89.4,74.9s.5-.4.5.1-.6,1-.6,1Z"/><path class="cls-20" d="M88,76.2a1.1,1.1,0,0,1,.6-2.1H89c.3.1.4.3.5.6a.8.8,0,0,1-.1.8,1.1,1.1,0,0,1-.9.7Zm-.3-1.4a.9.9,0,0,0,.4,1.2h.4a1,1,0,0,0,.8-.5,2.2,2.2,0,0,0,.1-.8.8.8,0,0,0-.5-.5h-.3A1,1,0,0,0,87.7,74.8Z"/><path class="cls-20" d="M85.4,76.4a1.1,1.1,0,0,1,.6-2.1h.4a1,1,0,0,1,.4,1.4,1.1,1.1,0,0,1-.9.7ZM85.1,75a.9.9,0,0,0,.4,1.2h.4a1,1,0,0,0,.8-.5,1,1,0,0,0-.4-1.3H86A1.1,1.1,0,0,0,85.1,75Z"/><path class="cls-20" d="M102.2,77.4l-.7-.3s6.6-9.4,8.3-11.5S102.2,77.4,102.2,77.4Z"/><path class="cls-15" d="M100.4,78.7s.8-2.8,1.4-3,0,1.5,0,1.5a1.8,1.8,0,0,1,2.1-1c.6.1.7,1.8-1.5,3.9Z"/><path class="cls-19" d="M101.8,77.9v.3c.1.3.1.7.4.9"/><polygon class="cls-30" points="89.9 134.1 90.1 134.1 86.8 104 86.6 104 89.9 134.1"/><rect class="cls-30" x="64.4" y="118.7" width="30.3" height="0.14" transform="translate(-46.9 185.5) rotate(-84)"/><path class="cls-48" d="M122.5,134.9s-3-3.7-5-3.2c-4.2,1,4,33.7,4,33.7h3.6S125.1,142.1,122.5,134.9Z"/><polygon class="cls-13" points="146.9 161.8 148.9 145.5 148.5 145.4 146.5 161.8 146.9 161.8"/><ellipse class="cls-12" cx="122.1" cy="174.2" rx="22.4" ry="1.3"/><path class="cls-49" d="M125.1,162.5h-4.5s.9,6.5.4,7.2-5.3,2.6-4.7,4.4h6.4l.8-2.8.5,2.8h1.3V162.5"/><path class="cls-15" d="M137.6,118.4s-4.1,2.6-4.6-2.9c0-.5-1.4-.5-1.2-.9s1.6-1.6,1.6-1.6l1.4-3.2s7.4,4.7,2.8,8.6"/><path class="cls-20" d="M133.2,112.8c0-.7.2-1.4.5-1.4s.5.7.5,1.4-.2,1.5-.5,1.5S133.2,113.5,133.2,112.8Zm.1,0c0,.9.2,1.3.4,1.3s.4-.4.4-1.3-.2-1.3-.4-1.3S133.3,112,133.3,112.8Z"/><path class="cls-4" d="M136,120.6a1.4,1.4,0,0,0-1.4-1.3c-.4,0,0,1.9,0,1.9s-1.1-1.2-1.3-1,.6,1.6.6,1.6H136Z"/><path class="cls-15" d="M117.1,139s-3.5-4.7-5-3.2,4,33.7,4,33.7h3.7S119.8,146.2,117.1,139Z"/><path class="cls-13" d="M138.1,155.9H122.5s.8-3.9,7.8-3.9S138.1,155.9,138.1,155.9Z"/><polygon class="cls-13" points="128.7 174.2 129.1 174.2 125.7 155.3 125.2 155.4 128.7 174.2"/><polygon class="cls-13" points="133.2 174.2 135.5 155.2 135.1 155.2 132.8 174.2 133.2 174.2"/><polygon class="cls-13" points="121.2 174.1 123.4 155 123 154.9 120.8 174.1 121.2 174.1"/><path class="cls-48" d="M118,135.1s-3.1-4-4.1-3.4-2.5,4.6-1.8,4,3.7,2,3.7,2Z"/><polygon class="cls-50" points="126.8 133 119.8 132.1 119 134.3 125.9 137.5 126.8 133"/><path class="cls-22" d="M119.6,162.5H115s.9,6.5.4,7.2-5.5,2.6-5,4.4h6.7l.9-2.8.4,2.8h1.4V162.5"/><path class="cls-15" d="M121.2,132.3s-2.3-2.5-3.2-2-2.2,3.9-1.5,3.3c2.3-2.1,2.2,1,2.2,1Z"/><path class="cls-4" d="M121.2,132.8s-.6-2.5-1.2-2.2,0,2.6,0,2.6-1.4-.9-1.5-.6.9,1.1.9,1.1-3.1-.5-2,.4,3.4,1,3.4,1Z"/><path class="cls-20" d="M133.3,112.9c3.6-.9,4.9-.6,5.3-.3l.2.2h.1a.4.4,0,0,0-.2-.3c-.6-.4-1.9-.6-5.5.3Z"/><path class="cls-20" d="M133.8,116.6h.1c.2,0,.3-.3.3-.3h-.1l-.2.2c-.1.1-.3,0-.4-.2h-.1Z"/><path class="cls-20" d="M134.3,112.7c0,.2,0,.4.1.4s.2-.2.2-.4-.1-.5-.2-.5S134.3,112.4,134.3,112.7Z"/><path class="cls-19" d="M136.7,114.4l.4.2.4-.2c0-.1-.2-.2-.4-.2S136.7,114.3,136.7,114.4Z"/><polygon class="cls-19" points="116.2 143.6 114.6 141.9 114.6 143.2 116.2 143.6"/><path class="cls-47" d="M137.6,146.8s-2.5,7.2-9.9,5.6-11.6-8.8-11.6-8.8,1-6.9,2.9-7.3C129.6,133.9,131.5,149.5,137.6,146.8Z"/><path class="cls-51" d="M137.6,146.8s-3.7,2.4-12.5-2.8l-9-5.9,1.9-3,7.7,3.3c1.1-5.7,3.1-14.5,5.4-15.6,4.1-1.8,10.7-2.5,11.6,1.1s.2,19.2-2,19.7a5,5,0,0,1-2.2-.4A5.8,5.8,0,0,1,137.6,146.8Z"/><path class="cls-43" d="M137.8,107.1a1.6,1.6,0,0,1-1.5.7c-.9-.3-2.9-.3-3,1.7s1.6,1.4,1.8,1.9.2,2.9,1.2,2.1a1.2,1.2,0,0,1,1.8,1.7c-.7.9-2,.3-2.1.9s1.2,1.7.6,2.5-1.8,2.5-1.1,5.6a3.2,3.2,0,0,0,4.7,2.1s.6,3.3,3.5,3.3,5.1-3.5,1.4-11.3c-.8-1.8.7-3,.1-5.1s-2-1.7-2.2-2.5S143,105.2,137.8,107.1Z"/><g class="cls-16"><path class="cls-43" d="M136,116.1a.6.6,0,0,1,.6-.3c.1.6,1.1,1.5.5,2.2s-1.8,2.5-1.1,5.6a3.2,3.2,0,0,0,4.7,2.1s.6,3.2,3.5,3.2a3.1,3.1,0,0,0,2.3-.8,3.1,3.1,0,0,1-2.8,1.5c-2.9,0-3.5-3.3-3.5-3.3a3.2,3.2,0,0,1-4.7-2.1,6.2,6.2,0,0,1,1.1-5.6C137.3,117.8,136,116.8,136,116.1Z"/><path class="cls-43" d="M133.3,109.5a1.8,1.8,0,0,1,.6-1.4,1.9,1.9,0,0,0-.1.8c-.1,1.7,1.6,1.4,1.8,1.8s.2,3,1.2,2.2a1.2,1.2,0,0,1,1.8,1.6l-.3.4c.3-1-.9-2.3-2-1.4s-1.1-1.7-1.2-2.1S133.2,111.2,133.3,109.5Z"/></g><path class="cls-52" d="M133.1,130.3s-4.5,15.3-6.3,14.5l2.1,1.1Z"/><path class="cls-13" d="M141.1,174.2h.4l-4.4-19.4c.5-1,5.6-13,2.6-17.5a4.1,4.1,0,0,0-3.6-1.7c-3.3.1-6.1,3.3-8.4,9.5a67.3,67.3,0,0,0-2.5,9.2h.5c0-.2,3-18.1,10.4-18.3a3.5,3.5,0,0,1,3.3,1.4c2.9,4.4-2.7,17.1-2.7,17.2h-.1Z"/><path class="cls-13" d="M137.1,146.8a12.1,12.1,0,0,0,2.6-.2v-.4a16.6,16.6,0,0,1-5.8,0c-4.6-.5-5.9-1.1-5.9-1.1l-.2.4a25,25,0,0,0,6,1.1A22.5,22.5,0,0,0,137.1,146.8Z"/><path class="cls-13" d="M137,144.2h3.2v-.4c-.1,0-7.1.8-11-1.3l-.2.3C131.3,144,134.6,144.2,137,144.2Z"/><path class="cls-4" d="M118,135.1s-.9-1.6-1.5-1.5.1,2.4.1,2.4-1.1-2.1-1.7-1.6,1,2.5,1,2.5-2-.9-2-.1,2.2,1.3,2.2,1.3Z"/><polygon class="cls-52" points="138.5 143.2 140.2 133.9 139.5 143.4 138.5 143.2"/><path class="cls-53" d="M136.8,147.1s-3,1.1-8.3-1.4c-1.3-.6,2.3,2.5,5.6,2.8A2.9,2.9,0,0,0,136.8,147.1Z"/><path class="cls-13" d="M193,155.3H177.4s.8-3.9,7.8-3.9S193,155.3,193,155.3Z"/><path class="cls-14" d="M193.9,149.7a6.3,6.3,0,0,1-5.7,4.4c-4.8.3-17.3-5.8-17.3-5.8l-2.8,22.8h-4.9s.7-32.9,2-33.9S191,145.9,193.9,149.7Z"/><polygon class="cls-20" points="163.5 160.4 162.4 163 151.5 160.1 158.6 158.7 163.5 160.4"/><polygon class="cls-54" points="170.9 148.3 169.9 147.6 170.5 151.7 170.9 148.3"/><rect class="cls-7" x="154.1" y="150.9" width="25.9" height="0.14" transform="translate(-33.2 253.9) rotate(-69.3)"/><polygon class="cls-55" points="178.4 135.6 177.5 136.3 177.5 134.3 178.4 135.6"/><ellipse class="cls-12" cx="176.3" cy="173.8" rx="22.4" ry="1.3"/><path class="cls-56" d="M199.6,125.2s4.1,18.4,2.2,19.5-5.2-2.6-5.2-2.6S200.5,130.5,199.6,125.2Z"/><path class="cls-57" d="M187.3,145s-16.1-15.9-17.5-15.5c-3.5.9-11.3,29.2-11.3,29.2l4.9,1.7,8.2-21.6,12,4.9Z"/><path class="cls-15" d="M197.5,120.9s1.6-9.7-.3-11.2a24.1,24.1,0,0,0-3.7-2.4,36.8,36.8,0,0,1-1.9,4.8c-.5.9-1.9,1.3-2.6,2s2.1.7,2.1.7-.9,3.1,0,3.6a3.2,3.2,0,0,0,3.4-.3l-1.1,3.3h4"/><path class="cls-5" d="M193.9,150.2h0s-7.9.5-10.7-3.7c-.8-1.1,5.1-13.5,5.1-13.5s-8.5,9.5-10.7,8.3-3.4-4-5-10l2.7-.3,3.1,4.6s11.1-14.3,15-14.3,4.1-.9,4.7,0C199.7,124.1,204.2,125.4,193.9,150.2Z"/><path class="cls-44" d="M197.8,118.4a2.3,2.3,0,0,1-2-1.5c-.3-.7-.7-2.1-.7-2.1s1.5-2.3,0-3-1.5,1.6-1.5,1.6h-.8s1.4-4.2-.5-5.9,4.9.4,6.8,0,1.7,0,1.7,0l-1.1,1.1S204.3,113.7,197.8,118.4Z"/><g class="cls-16"><path class="cls-44" d="M193,106.9c1.6,1.8.2,4.8.1,6.3s.7-.6.7-.6a2,2,0,0,0-.2.8h-.8s1.4-4.2-.5-5.9S192.1,106.8,193,106.9Z"/><path class="cls-44" d="M200.6,107.3l.2.2-1.1,1.1.6-.9Z"/><path class="cls-44" d="M195.4,111.2c1.6.6.1,3.4.1,3.4a6.7,6.7,0,0,0,.6,1.6c.7,1.4,1.3,2,2.3,1.3a8.9,8.9,0,0,0,2.4-2.4,8.2,8.2,0,0,1-3,3.3,2.3,2.3,0,0,1-2-1.5c-.3-.7-.7-2.1-.7-2.1s1.5-2.1,0-3-.8.1-1,.3S194.3,110.8,195.4,111.2Z"/></g><polygon class="cls-20" points="168.2 171.1 168.2 174.2 156.1 174.2 163.2 171.1 168.2 171.1"/><path class="cls-58" d="M197.6,120.1l1.2,2.3s-5.8-.3-9,.8c-1.1.4,3.9-2.8,3.9-2.8Z"/><polygon class="cls-19" points="194.5 118.1 195.2 117.5 193.8 120.1 194.5 118.1"/><polygon class="cls-55" points="188.3 133 191.8 129.6 187.1 135.6 188.3 133"/><path class="cls-19" d="M194.5,113.4c-.1.2-.1.4,0,.4s.3,0,.4-.2.1-.4,0-.4S194.6,113.2,194.5,113.4Z"/><path class="cls-59" d="M192.2,112.1c-.1.3-.1.5,0,.5a.4.4,0,0,0,.2-.4.4.4,0,0,0,0-.5C192.3,111.7,192.2,111.9,192.2,112.1Z"/><path class="cls-59" d="M191.5,116c.2,0,.5-.3.5-.3h-.1l-.4.3c-.1,0-.2-.2-.2-.3h-.1c0,.3.1.4.2.4Z"/><polygon class="cls-13" points="184 174.3 184.4 174.3 181 155 180.6 155.1 184 174.3"/><polygon class="cls-13" points="189.1 174.3 191.3 155.2 190.9 155.2 188.7 174.3 189.1 174.3"/><polygon class="cls-13" points="177.3 174.3 179.5 155.2 179.1 155.2 176.9 174.3 177.3 174.3"/><polygon class="cls-60" points="171.6 138.8 171.8 137.9 173.1 139.5 171.6 138.8"/><path class="cls-15" d="M175.3,131s-1.6-2.9-2.6-2.9-3.5,1.6-3.5,1.6a6.6,6.6,0,0,1,3.4,1.7Z"/><path class="cls-21" d="M193.5,150.2a27.8,27.8,0,0,1-5.2-.5,11.1,11.1,0,0,1-3.8-1.8c.6.5,1.8,3,5.8,2.9A12.4,12.4,0,0,0,193.5,150.2Z"/><path class="cls-61" d="M189.1,142l-3.5-.9s-2.6,4.6-.4,5.5S189.1,142,189.1,142Z"/><path class="cls-13" d="M196.4,174.3h.4l-4.4-19.4c.5-1.1,5.6-13.1,2.7-17.6a4,4,0,0,0-3.7-1.6c-3.3,0-6.1,3.2-8.4,9.4a53.2,53.2,0,0,0-2.4,9.2h.4c0-.2,3.1-18.1,10.4-18.3a3.5,3.5,0,0,1,3.3,1.4c3,4.4-2.7,17.1-2.7,17.3h0Z"/><path class="cls-13" d="M192.5,146.8a14.6,14.6,0,0,0,2.6-.2v-.4a17.7,17.7,0,0,1-5.9,0c-4.6-.5-5.8-1.5-5.8-1.5l-.3.3c.1.1,1.3,1.1,6,1.6A23.7,23.7,0,0,0,192.5,146.8Z"/><path class="cls-13" d="M194.1,144.1h1.4v-.4c-.1,0-8.9.3-11.2-1.5l-.2.3C185.9,143.9,191.4,144.1,194.1,144.1Z"/><path class="cls-7" d="M196.2,144.6c.1-.2,4.7-13.2,4.3-17.9a10.8,10.8,0,0,0-1.6-4.4h-.1a10.1,10.1,0,0,1,1.6,4.3c.4,4.7-4.3,17.7-4.3,17.8Z"/><path class="cls-13" d="M253.6,154.8H238s.8-3.9,7.8-3.9S253.6,154.8,253.6,154.8Z"/><path class="cls-36" d="M254.5,149.2a6.1,6.1,0,0,1-5.7,4.4c-4.8.3-17.3-5.8-17.3-5.8l-2.8,22.9h-4.9s.7-33,2-34S251.5,145.4,254.5,149.2Z"/><polygon class="cls-24" points="224 159.9 223 162.5 212.1 159.6 219.2 158.2 224 159.9"/><polygon class="cls-54" points="231.5 147.8 230.5 147.1 231.1 151.2 231.5 147.8"/><rect class="cls-7" x="214.7" y="150.4" width="25.9" height="0.14" transform="translate(6.5 310.3) rotate(-69.3)"/><polygon class="cls-55" points="239 135.1 238.1 135.8 238.1 133.8 239 135.1"/><ellipse class="cls-12" cx="236.8" cy="173.3" rx="22.4" ry="1.3"/><path class="cls-62" d="M260.2,124.7s4.1,18.4,2.2,19.5-5.2-2.6-5.2-2.6S261.1,130,260.2,124.7Z"/><path class="cls-37" d="M247.9,144.5s-16.1-15.9-17.6-15.5c-3.4,1-11.2,29.2-11.2,29.2l4.9,1.7,8.2-21.5,12,4.8Z"/><path class="cls-15" d="M258.1,120.4s1.6-9.6-.3-11.2a24.1,24.1,0,0,0-3.7-2.4,36.8,36.8,0,0,1-1.9,4.8c-.5.9-1.9,1.3-2.6,2s2.1.7,2.1.7-.9,3.1,0,3.6a3.2,3.2,0,0,0,3.4-.3l-1.1,3.3h4"/><path class="cls-62" d="M254.5,149.7h0s-7.9.5-10.8-3.7c-.7-1.1,5.2-13.5,5.2-13.5s-8.5,9.5-10.7,8.3-3.4-4-5-10l2.7-.3,3.1,4.6s11-14.3,15-14.3,4.1-.9,4.7,0C260.3,123.6,264.8,124.9,254.5,149.7Z"/><path class="cls-63" d="M258.4,117.9a2.3,2.3,0,0,1-2-1.5l-.8-2.1s1.6-2.3,0-3-1.4,1.6-1.4,1.6h-.8s1.4-4.2-.5-5.9,4.9.4,6.8,0,1.6,0,1.6,0l-1,1.1S264.9,113.3,258.4,117.9Z"/><g class="cls-16"><path class="cls-44" d="M253.6,106.4c1.5,1.8.2,4.8.1,6.3s.7-.6.7-.6a2,2,0,0,0-.2.8h-.8s1.4-4.2-.5-5.9S252.6,106.3,253.6,106.4Z"/><path class="cls-44" d="M261.2,106.8c.2.1.1.2.1.2l-1,1.1.5-.8Z"/><path class="cls-44" d="M256,110.7c1.6.6.1,3.4.1,3.4a8.5,8.5,0,0,0,.6,1.7c.7,1.3,1.3,1.9,2.2,1.3a14.6,14.6,0,0,0,2.5-2.4,9.7,9.7,0,0,1-3,3.2,2.3,2.3,0,0,1-2-1.5l-.8-2.1s1.6-2.1,0-3-.7.1-.9.3S254.8,110.3,256,110.7Z"/></g><polygon class="cls-24" points="228.8 170.7 228.8 173.7 216.7 173.7 223.8 170.7 228.8 170.7"/><path class="cls-64" d="M258.2,119.6l1.2,2.3s-5.8-.3-9,.8c-1.1.5,3.9-2.8,3.9-2.8Z"/><polygon class="cls-19" points="255.1 117.6 255.8 117 254.4 119.6 255.1 117.6"/><polygon class="cls-55" points="248.9 132.5 252.4 129.2 247.7 135.1 248.9 132.5"/><path class="cls-19" d="M255.1,112.9c-.1.2-.1.4,0,.4s.3,0,.4-.2.1-.4,0-.4S255.2,112.7,255.1,112.9Z"/><path class="cls-59" d="M252.7,111.7c0,.2,0,.4.1.4s.1-.1.2-.4.1-.4,0-.4S252.8,111.4,252.7,111.7Z"/><path class="cls-59" d="M252.1,115.5c.2,0,.5-.3.5-.3h-.1l-.4.3c-.1,0-.2-.2-.2-.3h-.1c0,.3.1.4.2.4Z"/><polygon class="cls-13" points="244.6 173.8 245 173.8 241.6 154.5 241.1 154.6 244.6 173.8"/><polygon class="cls-13" points="249.7 173.8 251.9 154.8 251.5 154.7 249.3 173.8 249.7 173.8"/><polygon class="cls-13" points="237.9 173.8 240.1 154.8 239.7 154.7 237.5 173.8 237.9 173.8"/><polygon class="cls-60" points="232.2 138.4 232.4 137.5 233.7 139 232.2 138.4"/><path class="cls-15" d="M235.9,130.5s-1.6-2.8-2.6-2.9-3.5,1.7-3.5,1.7a6.5,6.5,0,0,1,3.4,1.6Z"/><path class="cls-21" d="M254.1,149.7a27.8,27.8,0,0,1-5.2-.5,11.1,11.1,0,0,1-3.8-1.8c.6.5,1.7,3,5.8,2.9A12.4,12.4,0,0,0,254.1,149.7Z"/><path class="cls-61" d="M249.7,141.5l-3.5-.9s-2.6,4.6-.4,5.5S249.7,141.5,249.7,141.5Z"/><path class="cls-13" d="M257,173.8h.4L253,154.3c.5-1.1,5.6-13.1,2.6-17.6a3.8,3.8,0,0,0-3.6-1.6c-3.3.1-6.1,3.2-8.4,9.4a76.7,76.7,0,0,0-2.5,9.2h.5c0-.2,3-18.1,10.4-18.3a3.5,3.5,0,0,1,3.3,1.4c2.9,4.4-2.7,17.1-2.7,17.3h-.1Z"/><path class="cls-13" d="M253,146.4a10.3,10.3,0,0,0,2.7-.3l-.2-.4a16.6,16.6,0,0,1-5.8,0c-4.6-.5-5.8-1.5-5.8-1.5l-.3.4c.1,0,1.3,1,6,1.5Z"/><path class="cls-13" d="M254.6,143.6h1.5v-.4c-.1,0-8.9.3-11.2-1.5l-.2.3C246.5,143.4,252,143.6,254.6,143.6Z"/><path class="cls-7" d="M256.8,144.1c0-.1,4.7-13.2,4.3-17.9a11.6,11.6,0,0,0-1.6-4.4h-.1a10.1,10.1,0,0,1,1.6,4.3c.4,4.7-4.3,17.7-4.3,17.8Z"/></g></g></svg>